<svg width="48" height="48" viewBox="0 0 48 48" fill="none" xmlns="http://www.w3.org/2000/svg">
<path d="M9 26.5V19.021C9 19.0094 9.0094 19 9.021 19H35.979C35.9906 19 36 19.0094 36 19.021V26.5C36 33.9558 29.9558 40 22.5 40C15.0442 40 9 33.9558 9 26.5Z" stroke="#00B375" stroke-width="2" stroke-linecap="round" stroke-linejoin="round"/>
<path d="M36 21H37C39.2091 21 41 22.7909 41 25V25C41 27.2091 39.2091 29 37 29H36" stroke="#00B375" stroke-width="2" stroke-linecap="round"/>
<path d="M16.3691 7.72949H18.1855L20.1484 12.5244H20.2266L22.1895 7.72949H24.0059V14.7998H22.5801V10.1709H22.5215L20.6758 14.7705H19.6992L17.8535 10.1514H17.7949V14.7998H16.3691V7.72949ZM26.0176 16.792C25.7344 16.792 25.4707 16.7822 25.2852 16.7627V15.6396C25.4707 15.6494 25.6855 15.6592 25.8711 15.6592C26.1543 15.6592 26.3887 15.6299 26.5645 15.1709L26.6523 14.9463L24.748 9.49707H26.2617L27.375 13.4033H27.4336L28.5566 9.49707H30.0898L28.0195 15.3857C27.7168 16.2354 27.1406 16.792 26.0176 16.792Z" fill="#00B375"/>
</svg>
