<svg width="38" height="37" viewBox="0 0 38 37" fill="none" xmlns="http://www.w3.org/2000/svg">
<rect width="38" height="37" fill="#9D9D9D"/>
<path d="M-2638 -1725C-2638 -1726.1 -2637.1 -1727 -2636 -1727H1520C1521.1 -1727 1522 -1726.1 1522 -1725V2586C1522 2587.1 1521.1 2588 1520 2588H-2636C-2637.1 2588 -2638 2587.1 -2638 2586V-1725Z" fill="white"/>
<path d="M-2636 -1726H1520V-1728H-2636V-1726ZM1521 -1725V2586H1523V-1725H1521ZM1520 2587H-2636V2589H1520V2587ZM-2637 2586V-1725H-2639V2586H-2637ZM-2636 2587C-2636.55 2587 -2637 2586.55 -2637 2586H-2639C-2639 2587.66 -2637.66 2589 -2636 2589V2587ZM1521 2586C1521 2586.55 1520.55 2587 1520 2587V2589C1521.66 2589 1523 2587.66 1523 2586H1521ZM1520 -1726C1520.55 -1726 1521 -1725.55 1521 -1725H1523C1523 -1726.66 1521.66 -1728 1520 -1728V-1726ZM-2636 -1728C-2637.66 -1728 -2639 -1726.66 -2639 -1725H-2637C-2637 -1725.55 -2636.55 -1726 -2636 -1726V-1728Z" fill="black" fill-opacity="0.1"/>
<path d="M-433 -192C-433 -193.105 -432.105 -194 -431 -194H319C320.105 -194 321 -193.105 321 -192V1099C321 1100.1 320.105 1101 319 1101H-431C-432.105 1101 -433 1100.1 -433 1099V-192Z" fill="#ECECEC"/>
<path d="M-431 -193H319V-195H-431V-193ZM320 -192V1099H322V-192H320ZM319 1100H-431V1102H319V1100ZM-432 1099V-192H-434V1099H-432ZM-431 1100C-431.552 1100 -432 1099.55 -432 1099H-434C-434 1100.66 -432.657 1102 -431 1102V1100ZM320 1099C320 1099.55 319.552 1100 319 1100V1102C320.657 1102 322 1100.66 322 1099H320ZM319 -193C319.552 -193 320 -192.552 320 -192H322C322 -193.657 320.657 -195 319 -195V-193ZM-431 -195C-432.657 -195 -434 -193.657 -434 -192H-432C-432 -192.552 -431.552 -193 -431 -193V-195Z" fill="black" fill-opacity="0.1"/>
<g clip-path="url(#clip0_0_1)">
<rect width="440" height="956" transform="translate(-380 -68)" fill="#F8F8F8"/>
<g filter="url(#filter0_d_0_1)">
<rect width="440" height="120" transform="translate(-380 -68)" fill="white"/>
</g>
<path d="M24.25 32.1451C26.7822 32.4076 30.2 33.2196 32.0165 30.9026C33 29.6479 33 27.7352 33 23.9115V13.0862C33 9.26083 33 7.34987 32.0165 6.09515C30.2 3.7782 26.784 4.59018 24.25 4.85267M19 20.2488V16.7489M31.25 32.0208H36.5M1.5 32.4986H6.75M5 13.606C5 9.97831 5 8.1636 5.6265 6.69188C6.13407 5.47748 6.95844 4.42165 8.0135 3.6347C9.25775 2.71422 10.929 2.38873 14.2697 1.73949C17.7435 1.06576 19.4795 0.728013 20.8323 1.267C21.9742 1.73096 22.9211 2.57465 23.5133 3.6557C24.25 4.98042 24.25 6.86688 24.25 10.6415V26.3597C24.25 30.1326 24.25 32.0191 23.5133 33.3421C22.9218 34.4244 21.9748 35.2694 20.8323 35.7343C19.4795 36.2715 17.7435 35.9337 14.2697 35.26C10.9272 34.6108 9.25775 34.2853 8.0135 33.3648C6.95844 32.5779 6.13407 31.522 5.6265 30.3076C5 28.8324 5 27.0212 5 23.3918V13.606Z" stroke="black" stroke-width="1.5" stroke-linecap="round" stroke-linejoin="round"/>
</g>
<defs>
<filter id="filter0_d_0_1" x="-384" y="-69" width="448" height="128" filterUnits="userSpaceOnUse" color-interpolation-filters="sRGB">
<feFlood flood-opacity="0" result="BackgroundImageFix"/>
<feColorMatrix in="SourceAlpha" type="matrix" values="0 0 0 0 0 0 0 0 0 0 0 0 0 0 0 0 0 0 127 0" result="hardAlpha"/>
<feOffset dy="3"/>
<feGaussianBlur stdDeviation="2"/>
<feComposite in2="hardAlpha" operator="out"/>
<feColorMatrix type="matrix" values="0 0 0 0 0 0 0 0 0 0 0 0 0 0 0 0 0 0 0.04 0"/>
<feBlend mode="normal" in2="BackgroundImageFix" result="effect1_dropShadow_0_1"/>
<feBlend mode="normal" in="SourceGraphic" in2="effect1_dropShadow_0_1" result="shape"/>
</filter>
<clipPath id="clip0_0_1">
<rect width="440" height="956" fill="white" transform="translate(-380 -68)"/>
</clipPath>
</defs>
</svg>
