<svg width="19" height="30" viewBox="0 0 19 30" fill="none" xmlns="http://www.w3.org/2000/svg">
<g clip-path="url(#clip0_1_221)">
<path d="M11.7 15L1.3 4.60003C0.811112 4.11114 0.566666 3.48892 0.566666 2.73336C0.566666 1.97781 0.811112 1.35559 1.3 0.8667C1.78889 0.37781 2.41111 0.133362 3.16667 0.133362C3.92222 0.133362 4.54444 0.37781 5.03333 0.8667L17.3 13.1334C17.5667 13.4 17.7551 13.6889 17.8653 14C17.9756 14.3111 18.0316 14.6445 18.0333 15C18.0351 15.3556 17.9791 15.6889 17.8653 16C17.7516 16.3111 17.5631 16.6 17.3 16.8667L5.03333 29.1334C4.54444 29.6223 3.92222 29.8667 3.16667 29.8667C2.41111 29.8667 1.78889 29.6223 1.3 29.1334C0.81111 28.6445 0.566664 28.0223 0.566664 27.2667C0.566664 26.5111 0.81111 25.8889 1.3 25.4L11.7 15Z" fill="black"/>
</g>
<defs>
<clipPath id="clip0_1_221">
<rect width="18" height="30" fill="white" transform="translate(18.5 30) rotate(-180)"/>
</clipPath>
</defs>
</svg>
