<svg width="19" height="18" viewBox="0 0 19 18" fill="none" xmlns="http://www.w3.org/2000/svg">
<path d="M6.5 4V14H8.5V10H9.3L10.5 14H12.5L11.26 9.85C12 9.55 12.5 8.84 12.5 8V6C12.5 5.46957 12.2893 4.96086 11.9142 4.58579C11.5391 4.21071 11.0304 4 10.5 4H6.5ZM8.5 6H10.5V8H8.5V6ZM2.5 0H16.5C17.0304 0 17.5391 0.210714 17.9142 0.585786C18.2893 0.960859 18.5 1.46957 18.5 2V16C18.5 16.5304 18.2893 17.0391 17.9142 17.4142C17.5391 17.7893 17.0304 18 16.5 18H2.5C1.96957 18 1.46086 17.7893 1.08579 17.4142C0.710714 17.0391 0.5 16.5304 0.5 16V2C0.5 1.46957 0.710714 0.960859 1.08579 0.585786C1.46086 0.210714 1.96957 0 2.5 0Z" fill="#C89543"/>
</svg>
