<svg width="18" height="23" viewBox="0 0 18 23" fill="none" xmlns="http://www.w3.org/2000/svg">
<rect width="18" height="23" fill="#F8F8F8"/>
<path d="M-2537 -3767C-2537 -3768.1 -2536.1 -3769 -2535 -3769H3221C3222.1 -3769 3223 -3768.1 3223 -3767V4454C3223 4455.1 3222.1 4456 3221 4456H-2535C-2536.1 4456 -2537 4455.1 -2537 4454V-3767Z" fill="#ECECEC"/>
<path d="M-2535 -3768H3221V-3770H-2535V-3768ZM3222 -3767V4454H3224V-3767H3222ZM3221 4455H-2535V4457H3221V4455ZM-2536 4454V-3767H-2538V4454H-2536ZM-2535 4455C-2535.55 4455 -2536 4454.55 -2536 4454H-2538C-2538 4455.66 -2536.66 4457 -2535 4457V4455ZM3222 4454C3222 4454.55 3221.55 4455 3221 4455V4457C3222.66 4457 3224 4455.66 3224 4454H3222ZM3221 -3768C3221.55 -3768 3222 -3767.55 3222 -3767H3224C3224 -3768.66 3222.66 -3770 3221 -3770V-3768ZM-2535 -3770C-2536.66 -3770 -2538 -3768.66 -2538 -3767H-2536C-2536 -3767.55 -2535.55 -3768 -2535 -3768V-3770Z" fill="black" fill-opacity="0.1"/>
<g clip-path="url(#clip0_0_1)">
<rect width="440" height="956" transform="translate(-404 -185)" fill="#F8F8F8"/>
<rect x="1" y="1.5" width="16" height="20" stroke="#01A862" stroke-width="2" stroke-linecap="round" stroke-linejoin="round"/>
<path d="M13 7.5H7C6.46957 7.5 5.96086 7.71071 5.58579 8.08579C5.21071 8.46086 5 8.96957 5 9.5C5 10.0304 5.21071 10.5391 5.58579 10.9142C5.96086 11.2893 6.46957 11.5 7 11.5H11C11.5304 11.5 12.0391 11.7107 12.4142 12.0858C12.7893 12.4609 13 12.9696 13 13.5C13 14.0304 12.7893 14.5391 12.4142 14.9142C12.0391 15.2893 11.5304 15.5 11 15.5H5M9 17V6" stroke="#01A862" stroke-width="2" stroke-linecap="round" stroke-linejoin="round"/>
</g>
<defs>
<clipPath id="clip0_0_1">
<rect width="440" height="956" fill="white" transform="translate(-404 -185)"/>
</clipPath>
</defs>
</svg>
