<svg width="16" height="18" viewBox="0 0 16 18" fill="none" xmlns="http://www.w3.org/2000/svg">
<path d="M13.0536 17.28C12.0736 18.23 11.0036 18.08 9.97358 17.63C8.88358 17.17 7.88358 17.15 6.73358 17.63C5.29358 18.25 4.53358 18.07 3.67358 17.28C-1.20642 12.25 -0.486418 4.59 5.05358 4.31C6.40358 4.38 7.34358 5.05 8.13358 5.11C9.31358 4.87 10.4436 4.18 11.7036 4.27C13.2136 4.39 14.3536 4.99 15.1036 6.07C11.9836 7.94 12.7236 12.05 15.5836 13.2C15.0136 14.7 14.2736 16.19 13.0436 17.29L13.0536 17.28ZM8.03358 4.25C7.88358 2.02 9.69358 0.18 11.7736 0C12.0636 2.58 9.43358 4.5 8.03358 4.25Z" fill="white"/>
</svg>
