<svg width="20" height="26" viewBox="0 0 20 26" fill="none" xmlns="http://www.w3.org/2000/svg">
<path fill-rule="evenodd" clip-rule="evenodd" d="M5.2971 4.10523H13.6503C13.4367 3.46574 13.0743 2.87785 12.5844 2.39263C11.7594 1.57548 10.6404 1.11641 9.47368 1.11641C8.30695 1.11641 7.188 1.57548 6.363 2.39263C5.87311 2.87785 5.51069 3.46574 5.2971 4.10523ZM14.8339 4.14191C15.967 4.31753 16.8707 5.10626 17.0359 6.12442L19.8273 23.3274C20.0563 24.739 18.7917 26 17.1469 26H2.707C1.1123 26 -0.1368 24.8112 0.0120507 23.4351L1.87295 6.23213C1.98895 5.15984 2.92557 4.31229 4.11438 4.13811C4.35609 3.1867 4.85381 2.3086 5.56599 1.60321C6.60237 0.57669 8.00801 2.20649e-07 9.47368 0C10.9394 -2.2065e-07 12.345 0.57669 13.3814 1.6032C14.0945 2.30954 14.5926 3.18903 14.8339 4.14191ZM4.86618 8.5526C4.86618 9.73211 5.36524 10.8633 6.25357 11.6974C7.1419 12.5314 8.34674 13 9.60303 13C10.8593 13 12.0641 12.5314 12.9525 11.6974C13.8408 10.8633 14.3399 9.73212 14.3399 8.5526H13.3737C13.3737 9.49154 12.9765 10.392 12.2693 11.056C11.5622 11.7199 10.6031 12.0929 9.60303 12.0929C8.60297 12.0929 7.64387 11.7199 6.93673 11.056C6.22958 10.392 5.83231 9.49154 5.83231 8.5526H4.86618Z" fill="#0C7A41"/>
</svg>
