<svg width="37" height="44" viewBox="0 0 37 44" fill="none" xmlns="http://www.w3.org/2000/svg">
<path d="M18.4999 42.7032C18.7378 42.7032 18.966 42.6254 19.1543 42.54C19.3523 42.4503 19.5609 42.3271 19.7733 42.1834C20.1984 41.8959 20.6896 41.495 21.2173 41.0205C22.2753 40.0684 23.5331 38.7792 24.7904 37.4056C27.3001 34.6628 29.8654 31.5255 30.8969 29.9834C30.9762 29.8645 31.0549 29.7467 31.1329 29.63C34.08 25.2272 35.9999 22.3579 35.9999 17.1803C35.9999 8.19747 28.116 1 18.4999 1C8.88381 1 1 8.19747 1 17.1803C1 22.5135 2.87214 25.3698 5.95235 29.9823C7.05377 31.6325 9.65851 34.7719 12.1891 37.4877C13.4573 38.8484 14.7213 40.1192 15.7831 41.0541C16.3128 41.5198 16.8051 41.9143 17.2311 42.1953C17.4438 42.3368 17.6524 42.4568 17.8501 42.5443C18.0385 42.6286 18.265 42.7032 18.4999 42.7032Z" fill="#00623B" stroke="white" stroke-width="2"/>
</svg>
