<svg width="19" height="20" viewBox="0 0 19 20" fill="none" xmlns="http://www.w3.org/2000/svg">
<path d="M1.19995 10.1532V8.20117C1.19995 7.64889 1.64767 7.20117 2.19995 7.20117H16.7C17.2522 7.20117 17.7 7.64889 17.7 8.20117V10.0766C17.7 10.487 17.4425 10.8489 17.033 10.8769C16.6408 10.9037 16.105 10.8861 15.45 10.7567C13.95 10.4604 13.575 10.1641 11.7 10.7567C9.82495 11.3493 9.44995 11.3493 7.94995 10.7567C6.44995 10.1641 6.07495 10.1641 4.19995 10.7567C3.17628 11.0803 2.32726 11.0542 1.77208 10.9422C1.40825 10.8689 1.19995 10.5244 1.19995 10.1532Z" fill="#787878" stroke="#666666" stroke-width="1.5" stroke-linecap="round"/>
<path d="M2.69995 11.2012V16.4012C2.69995 17.5057 3.59538 18.4012 4.69995 18.4012H14.2C15.3045 18.4012 16.2 17.5057 16.2 16.4012V11.2012" stroke="#666666" stroke-width="1.5" stroke-linecap="round"/>
<path d="M9.44995 7.20078V4.80078" stroke="#666666" stroke-width="1.5" stroke-linecap="round"/>
<path d="M8.22447 2.79712L8.6079 2.0473C8.9592 1.36031 9.94094 1.36032 10.2922 2.0473L10.6757 2.79712C11.1441 3.71306 10.4788 4.80039 9.45007 4.80039C8.42132 4.80039 7.7561 3.71306 8.22447 2.79712Z" fill="#787878" stroke="#666666" stroke-width="1.5" stroke-linecap="round"/>
</svg>
