<svg width="19" height="30" viewBox="0 0 19 30" fill="none" xmlns="http://www.w3.org/2000/svg">
<g clip-path="url(#clip0_1_218)">
<path d="M6.83337 14.8667L17.2334 25.2667C17.7223 25.7556 17.9667 26.3778 17.9667 27.1333C17.9667 27.8889 17.7223 28.5111 17.2334 29C16.7445 29.4889 16.1223 29.7333 15.3667 29.7333C14.6112 29.7333 13.9889 29.4889 13.5 29L1.23337 16.7333C0.966707 16.4667 0.778262 16.1778 0.66804 15.8667C0.557818 15.5556 0.501819 15.2222 0.500041 14.8667C0.498263 14.5111 0.554263 14.1778 0.66804 13.8667C0.781818 13.5556 0.970262 13.2667 1.23337 13L13.5 0.733332C13.9889 0.244443 14.6112 0 15.3667 0C16.1223 0 16.7445 0.244443 17.2334 0.733332C17.7223 1.22222 17.9667 1.84444 17.9667 2.6C17.9667 3.35556 17.7223 3.97778 17.2334 4.46667L6.83337 14.8667Z" fill="black"/>
</g>
<defs>
<clipPath id="clip0_1_218">
<rect width="18" height="30" fill="white" transform="translate(0.5)"/>
</clipPath>
</defs>
</svg>
